<mxfile host="app.diagrams.net" modified="2022-11-05T18:01:47.920Z" agent="5.0 (Windows NT 10.0; Win64; x64) AppleWebKit/537.36 (KHTML, like Gecko) Chrome/106.0.0.0 Safari/537.36" etag="VaUmPOo_p7p9djOP7kRK" version="20.5.2" type="github">
  <diagram id="NsqInIGywiZZ2RFG8WiF" name="第 1 页">
    <mxGraphModel dx="1422" dy="790" grid="1" gridSize="10" guides="1" tooltips="1" connect="1" arrows="1" fold="1" page="1" pageScale="1" pageWidth="827" pageHeight="1169" math="0" shadow="0">
      <root>
        <mxCell id="0" />
        <mxCell id="1" parent="0" />
        <mxCell id="gSTe2-r0RAviyPAt5eS3-32" value="" style="rounded=1;whiteSpace=wrap;html=1;fontSize=17;opacity=20;fillColor=#bac8d3;strokeColor=#23445d;" vertex="1" parent="1">
          <mxGeometry x="417" y="530" width="336" height="90" as="geometry" />
        </mxCell>
        <mxCell id="gSTe2-r0RAviyPAt5eS3-31" value="" style="rounded=1;whiteSpace=wrap;html=1;fontSize=17;opacity=20;fillColor=#bac8d3;strokeColor=#23445d;" vertex="1" parent="1">
          <mxGeometry x="414" y="770" width="336" height="90" as="geometry" />
        </mxCell>
        <mxCell id="gSTe2-r0RAviyPAt5eS3-30" value="" style="rounded=1;whiteSpace=wrap;html=1;fontSize=17;opacity=20;fillColor=#bac8d3;strokeColor=#23445d;" vertex="1" parent="1">
          <mxGeometry x="417" y="650" width="336" height="90" as="geometry" />
        </mxCell>
        <mxCell id="gSTe2-r0RAviyPAt5eS3-2" value="&lt;font style=&quot;font-size: 17px;&quot;&gt;个体画像&lt;/font&gt;" style="rounded=1;whiteSpace=wrap;html=1;" vertex="1" parent="1">
          <mxGeometry x="140" y="570" width="50" height="100" as="geometry" />
        </mxCell>
        <mxCell id="gSTe2-r0RAviyPAt5eS3-3" value="&lt;span style=&quot;font-size: 17px;&quot;&gt;通用画像&lt;/span&gt;" style="rounded=1;whiteSpace=wrap;html=1;" vertex="1" parent="1">
          <mxGeometry x="290" y="380" width="50" height="100" as="geometry" />
        </mxCell>
        <mxCell id="gSTe2-r0RAviyPAt5eS3-4" value="" style="rounded=1;whiteSpace=wrap;html=1;fontSize=17;opacity=20;fillColor=#bac8d3;strokeColor=#23445d;" vertex="1" parent="1">
          <mxGeometry x="414" y="360" width="336" height="150" as="geometry" />
        </mxCell>
        <mxCell id="gSTe2-r0RAviyPAt5eS3-5" value="基本信息" style="rounded=1;whiteSpace=wrap;html=1;" vertex="1" parent="1">
          <mxGeometry x="460" y="380" width="70" height="50" as="geometry" />
        </mxCell>
        <mxCell id="gSTe2-r0RAviyPAt5eS3-6" value="政治倾向" style="rounded=1;whiteSpace=wrap;html=1;" vertex="1" parent="1">
          <mxGeometry x="550" y="380" width="70" height="50" as="geometry" />
        </mxCell>
        <mxCell id="gSTe2-r0RAviyPAt5eS3-7" value="社交图谱" style="rounded=1;whiteSpace=wrap;html=1;" vertex="1" parent="1">
          <mxGeometry x="640" y="380" width="70" height="50" as="geometry" />
        </mxCell>
        <mxCell id="gSTe2-r0RAviyPAt5eS3-8" value="党派" style="rounded=1;whiteSpace=wrap;html=1;" vertex="1" parent="1">
          <mxGeometry x="460" y="440" width="70" height="50" as="geometry" />
        </mxCell>
        <mxCell id="gSTe2-r0RAviyPAt5eS3-9" value="时间线" style="rounded=1;whiteSpace=wrap;html=1;" vertex="1" parent="1">
          <mxGeometry x="550" y="440" width="70" height="50" as="geometry" />
        </mxCell>
        <mxCell id="gSTe2-r0RAviyPAt5eS3-10" value="重要性" style="rounded=1;whiteSpace=wrap;html=1;" vertex="1" parent="1">
          <mxGeometry x="640" y="440" width="70" height="50" as="geometry" />
        </mxCell>
        <mxCell id="gSTe2-r0RAviyPAt5eS3-11" value="&lt;span style=&quot;font-size: 17px;&quot;&gt;政治人物&lt;/span&gt;" style="rounded=1;whiteSpace=wrap;html=1;" vertex="1" parent="1">
          <mxGeometry x="290" y="520" width="50" height="100" as="geometry" />
        </mxCell>
        <mxCell id="gSTe2-r0RAviyPAt5eS3-13" value="政治主张" style="rounded=1;whiteSpace=wrap;html=1;" vertex="1" parent="1">
          <mxGeometry x="450" y="560" width="70" height="50" as="geometry" />
        </mxCell>
        <mxCell id="gSTe2-r0RAviyPAt5eS3-14" value="利益关系" style="rounded=1;whiteSpace=wrap;html=1;" vertex="1" parent="1">
          <mxGeometry x="547" y="560" width="70" height="50" as="geometry" />
        </mxCell>
        <mxCell id="gSTe2-r0RAviyPAt5eS3-15" value="重要事件" style="rounded=1;whiteSpace=wrap;html=1;" vertex="1" parent="1">
          <mxGeometry x="640" y="560" width="70" height="50" as="geometry" />
        </mxCell>
        <mxCell id="gSTe2-r0RAviyPAt5eS3-17" value="&lt;span style=&quot;font-size: 17px;&quot;&gt;商业人物&lt;/span&gt;" style="rounded=1;whiteSpace=wrap;html=1;" vertex="1" parent="1">
          <mxGeometry x="290" y="640" width="50" height="100" as="geometry" />
        </mxCell>
        <mxCell id="gSTe2-r0RAviyPAt5eS3-18" value="公司股份" style="rounded=1;whiteSpace=wrap;html=1;" vertex="1" parent="1">
          <mxGeometry x="450" y="690" width="70" height="50" as="geometry" />
        </mxCell>
        <mxCell id="gSTe2-r0RAviyPAt5eS3-19" value="产业及产业链" style="rounded=1;whiteSpace=wrap;html=1;" vertex="1" parent="1">
          <mxGeometry x="547" y="690" width="70" height="50" as="geometry" />
        </mxCell>
        <mxCell id="gSTe2-r0RAviyPAt5eS3-20" value="大陆资产" style="rounded=1;whiteSpace=wrap;html=1;" vertex="1" parent="1">
          <mxGeometry x="640" y="690" width="70" height="50" as="geometry" />
        </mxCell>
        <mxCell id="gSTe2-r0RAviyPAt5eS3-23" value="&lt;span style=&quot;font-size: 17px;&quot;&gt;学者&lt;/span&gt;" style="rounded=1;whiteSpace=wrap;html=1;" vertex="1" parent="1">
          <mxGeometry x="290" y="770" width="50" height="100" as="geometry" />
        </mxCell>
        <mxCell id="gSTe2-r0RAviyPAt5eS3-25" value="学术信息" style="rounded=1;whiteSpace=wrap;html=1;" vertex="1" parent="1">
          <mxGeometry x="450" y="790" width="70" height="50" as="geometry" />
        </mxCell>
        <mxCell id="gSTe2-r0RAviyPAt5eS3-26" value="大陆学术合作" style="rounded=1;whiteSpace=wrap;html=1;" vertex="1" parent="1">
          <mxGeometry x="547" y="790" width="70" height="50" as="geometry" />
        </mxCell>
        <mxCell id="gSTe2-r0RAviyPAt5eS3-27" value="与卡脖子，战略需求关系" style="rounded=1;whiteSpace=wrap;html=1;" vertex="1" parent="1">
          <mxGeometry x="650" y="790" width="70" height="50" as="geometry" />
        </mxCell>
        <mxCell id="gSTe2-r0RAviyPAt5eS3-28" value="" style="endArrow=classic;html=1;rounded=0;fontSize=17;entryX=0;entryY=0.5;entryDx=0;entryDy=0;exitX=1.036;exitY=0.417;exitDx=0;exitDy=0;exitPerimeter=0;" edge="1" parent="1" source="gSTe2-r0RAviyPAt5eS3-2" target="gSTe2-r0RAviyPAt5eS3-3">
          <mxGeometry width="50" height="50" relative="1" as="geometry">
            <mxPoint x="190" y="650" as="sourcePoint" />
            <mxPoint x="240" y="600" as="targetPoint" />
          </mxGeometry>
        </mxCell>
        <mxCell id="gSTe2-r0RAviyPAt5eS3-33" value="" style="endArrow=classic;html=1;rounded=0;fontSize=17;entryX=0;entryY=0.5;entryDx=0;entryDy=0;exitX=1.063;exitY=0.39;exitDx=0;exitDy=0;exitPerimeter=0;" edge="1" parent="1" source="gSTe2-r0RAviyPAt5eS3-2" target="gSTe2-r0RAviyPAt5eS3-11">
          <mxGeometry width="50" height="50" relative="1" as="geometry">
            <mxPoint x="200" y="660" as="sourcePoint" />
            <mxPoint x="300.0000000000002" y="440" as="targetPoint" />
          </mxGeometry>
        </mxCell>
        <mxCell id="gSTe2-r0RAviyPAt5eS3-34" value="" style="endArrow=classic;html=1;rounded=0;fontSize=17;entryX=0;entryY=0.4;entryDx=0;entryDy=0;entryPerimeter=0;" edge="1" parent="1" target="gSTe2-r0RAviyPAt5eS3-17">
          <mxGeometry width="50" height="50" relative="1" as="geometry">
            <mxPoint x="190" y="610" as="sourcePoint" />
            <mxPoint x="300.0000000000002" y="570" as="targetPoint" />
          </mxGeometry>
        </mxCell>
        <mxCell id="gSTe2-r0RAviyPAt5eS3-35" value="" style="endArrow=classic;html=1;rounded=0;fontSize=17;entryX=-0.006;entryY=0.393;entryDx=0;entryDy=0;entryPerimeter=0;exitX=1.022;exitY=0.428;exitDx=0;exitDy=0;exitPerimeter=0;" edge="1" parent="1" source="gSTe2-r0RAviyPAt5eS3-2" target="gSTe2-r0RAviyPAt5eS3-23">
          <mxGeometry width="50" height="50" relative="1" as="geometry">
            <mxPoint x="190" y="680" as="sourcePoint" />
            <mxPoint x="300.0000000000002" y="690" as="targetPoint" />
          </mxGeometry>
        </mxCell>
        <mxCell id="gSTe2-r0RAviyPAt5eS3-36" value="" style="endArrow=classic;html=1;rounded=0;fontSize=17;exitX=1.036;exitY=0.417;exitDx=0;exitDy=0;exitPerimeter=0;" edge="1" parent="1" target="gSTe2-r0RAviyPAt5eS3-4">
          <mxGeometry width="50" height="50" relative="1" as="geometry">
            <mxPoint x="340.00000000000017" y="440.00000000000006" as="sourcePoint" />
            <mxPoint x="438.2000000000002" y="258.3" as="targetPoint" />
          </mxGeometry>
        </mxCell>
        <mxCell id="gSTe2-r0RAviyPAt5eS3-37" value="" style="endArrow=classic;html=1;rounded=0;fontSize=17;exitX=1;exitY=0.5;exitDx=0;exitDy=0;entryX=0.003;entryY=0.444;entryDx=0;entryDy=0;entryPerimeter=0;" edge="1" parent="1" source="gSTe2-r0RAviyPAt5eS3-11" target="gSTe2-r0RAviyPAt5eS3-32">
          <mxGeometry width="50" height="50" relative="1" as="geometry">
            <mxPoint x="343.0000000000002" y="560" as="sourcePoint" />
            <mxPoint x="417" y="558.4710743801652" as="targetPoint" />
          </mxGeometry>
        </mxCell>
        <mxCell id="gSTe2-r0RAviyPAt5eS3-38" value="" style="endArrow=classic;html=1;rounded=0;fontSize=17;exitX=1;exitY=0.5;exitDx=0;exitDy=0;entryX=0.003;entryY=0.444;entryDx=0;entryDy=0;entryPerimeter=0;" edge="1" parent="1">
          <mxGeometry width="50" height="50" relative="1" as="geometry">
            <mxPoint x="338.99000000000024" y="689.35" as="sourcePoint" />
            <mxPoint x="416.99800000000005" y="689.3100000000001" as="targetPoint" />
          </mxGeometry>
        </mxCell>
        <mxCell id="gSTe2-r0RAviyPAt5eS3-39" value="" style="endArrow=classic;html=1;rounded=0;fontSize=17;exitX=1;exitY=0.5;exitDx=0;exitDy=0;entryX=0.003;entryY=0.444;entryDx=0;entryDy=0;entryPerimeter=0;" edge="1" parent="1">
          <mxGeometry width="50" height="50" relative="1" as="geometry">
            <mxPoint x="340" y="814.6999999999999" as="sourcePoint" />
            <mxPoint x="418.0079999999998" y="814.66" as="targetPoint" />
          </mxGeometry>
        </mxCell>
      </root>
    </mxGraphModel>
  </diagram>
</mxfile>
